<svg id="Layer_1" data-name="Layer 1" xmlns="http://www.w3.org/2000/svg" width="339.67" height="44.51" viewBox="0 0 339.67 44.51"><defs><style>.cls-1{fill:#faab4d;}</style></defs><title>h-logo</title><path class="cls-1" d="M39.21,21.5c0.42-.05,2.26-0.3,2.8-0.39,0.17,0,.24,0,0.24.16-0.21.93-.55,2.16-0.78,3.08s-0.54,2-.81,3c-0.58,2.12-1.19,4.25-1.71,6.39a4.14,4.14,0,0,1-1.67,2.66A13,13,0,0,1,33.87,38a58.24,58.24,0,0,1-6.55,1.78,0.23,0.23,0,0,1-.24,0A6.54,6.54,0,0,1,27.5,38c0.19-.77.43-1.53,0.65-2.29,0.42-1.45.76-2.92,1.17-4.37s0.78-3,1.22-4.55c0.22-.76.44-1.54,0.62-2.3a4.65,4.65,0,0,1,.46-1.4c0.88-.22,3.7-0.86,4.15-0.94S38.48,21.59,39.21,21.5Z"/><path class="cls-1" d="M42.08,20.6a46.58,46.58,0,0,1-4.91-.07c-1.53,0-3.06,0-4.58-.09a0.22,0.22,0,0,1-.24-0.27c0.21-1.27.71-2.51,1-3.76s0.61-2.48,1-3.7,0.71-2.56,1-3.85,0.76-2.76,1.07-4c0.06-.24.09-0.27,0.33-0.26,1.58,0.08,3.17,0,4.75,0s3.31,0.11,4.93,0c0.24,0,.34.09,0.28,0.33C46,7.5,45.35,10.14,44.61,12.75c-0.36,1.27-.67,2.56-1,3.83s-0.59,2.61-1,3.82a0.39,0.39,0,0,1-.48.21h0C42,20.61,42.08,20.6,42.08,20.6Z"/><path class="cls-1" d="M23.35,20.41c-1.63-.09-3.25-0.18-4.88-0.2l-2.46,0c-0.76,0-1.77,0-2.4-.06a1.43,1.43,0,0,1,.09-0.49c0.16-.79.31-1.52,0.53-2.32s0.5-1.85.75-2.78L15.66,12a9.21,9.21,0,0,1,.87-2.67c1.11-1.69,3.63-2.4,5.43-3,1-.34,2-0.62,3-0.86C25.47,5.28,26,5.14,26.54,5a3.41,3.41,0,0,1,1.26-.23c0.21,0.13-.75,3-0.86,3.47-0.33,1.25-.71,2.49-1,3.74s-0.71,2.66-1.06,4-0.6,2.8-1.1,4.14a0.33,0.33,0,0,1-.4.26C22.51,20.37,23.57,20.43,23.35,20.41Z"/><path class="cls-1" d="M18.25,39.87H10.74a10.17,10.17,0,0,1-2.37,0,0.2,0.2,0,0,1-.15-0.27c0.54-1.71.93-3.46,1.42-5.18,0.13-.44.28-0.88,0.39-1.33s0.17-.93.21-1A25.53,25.53,0,0,1,12.7,30.3a47.69,47.69,0,0,1,4.63-2.6c0.82-.39,1.64-0.75,2.47-1.1s1.7-.78,2.23-1a0.19,0.19,0,0,1,.21,0A3.76,3.76,0,0,1,21.95,27c-0.16.65-.36,1.29-0.53,1.94-0.32,1.27-.68,2.53-1,3.8-0.6,2.32-1.11,4.73-1.88,7a0.21,0.21,0,0,1-.28.17C17.61,39.87,18.4,39.9,18.25,39.87Z"/><path class="cls-1" d="M37.5,21.22c-0.75.17-1.52,0.3-2.13,0.4a114.5,114.5,0,0,0-16.72,3.92c-1.14.37-2.27,0.78-3.38,1.19a48.58,48.58,0,0,0-5,2.16c-0.91.47-1.82,0.86-1.82,0.86,0.05-.34.35-1.82,0.43-2.09,0.18-.68.3-1.37,0.48-2.06a33.91,33.91,0,0,0,.85-3.91,0.16,0.16,0,0,1,.2-0.16c4.43-.1,8.86-0.27,13.29-0.27l7.07,0q1.74,0,3.47-.06c0.94,0,2.11-.08,3.22,0,0,0,0,0,0,0S37.49,21.2,37.5,21.22Z"/><path class="cls-1" d="M57.91,16v5.48h5.31V16h3.22V30.22H63.22v-6H57.91v6H54.67V16h3.24Z"/><path class="cls-1" d="M71.56,26.07c0.11,1.33,1.42,2,2.92,2a9.1,9.1,0,0,0,2.86-.42l0.42,2.18a10.23,10.23,0,0,1-3.75.63c-3.51,0-5.52-2-5.52-5.27,0-2.62,1.63-5.52,5.23-5.52,3.34,0,4.61,2.6,4.61,5.16a7.55,7.55,0,0,1-.11,1.27H71.56Zm3.79-2.2a1.87,1.87,0,0,0-1.82-2.09,2.11,2.11,0,0,0-2,2.09h3.81Z"/><path class="cls-1" d="M80.26,23.28c0-1.52,0-2.52-.08-3.41h2.77l0.11,1.91h0.08a3,3,0,0,1,2.79-2.14,3.34,3.34,0,0,1,.68,0v3a4.64,4.64,0,0,0-.87-0.08,2.07,2.07,0,0,0-2.2,1.63,3.81,3.81,0,0,0-.06.72v5.25H80.26V23.28Z"/><path class="cls-1" d="M88.3,23.28c0-1.52,0-2.52-.08-3.41H91l0.11,1.91h0.08A3,3,0,0,1,94,19.64a3.35,3.35,0,0,1,.68,0v3a4.65,4.65,0,0,0-.87-0.08,2.07,2.07,0,0,0-2.2,1.63,3.81,3.81,0,0,0-.06.72v5.25H88.3V23.28Z"/><path class="cls-1" d="M99.67,17a1.62,1.62,0,0,1-1.74,1.61,1.62,1.62,0,1,1,0-3.24A1.61,1.61,0,0,1,99.67,17ZM96.34,30.22V19.87h3.22V30.22H96.34Z"/><path class="cls-1" d="M102.14,23.17c0-1.29,0-2.39-.08-3.3h2.79L105,21.29h0.06a3.79,3.79,0,0,1,3.2-1.65c2.12,0,3.7,1.4,3.7,4.44v6.14h-3.22V24.48c0-1.33-.47-2.24-1.63-2.24a1.72,1.72,0,0,0-1.63,1.21,2.23,2.23,0,0,0-.13.8v6h-3.22v-7Z"/><path class="cls-1" d="M129.4,29.81a9.18,9.18,0,0,1-3.66.61c-4.93,0-7.47-3.07-7.47-7.13,0-4.87,3.47-7.58,7.79-7.58a8.41,8.41,0,0,1,3.51.63l-0.66,2.56a7,7,0,0,0-2.71-.53c-2.56,0-4.55,1.54-4.55,4.72,0,2.86,1.69,4.66,4.57,4.66a8.06,8.06,0,0,0,2.69-.47Z"/><path class="cls-1" d="M131.35,15.19h3.22v5.9h0A3.86,3.86,0,0,1,135.88,20a3.61,3.61,0,0,1,1.67-.4c2.05,0,3.62,1.42,3.62,4.53v6.05H138V24.52c0-1.35-.46-2.29-1.67-2.29a1.71,1.71,0,0,0-1.61,1.12,2.07,2.07,0,0,0-.11.72v6.14h-3.22v-15Z"/><path class="cls-1" d="M149.64,30.22l-0.19-1h-0.06a3.73,3.73,0,0,1-3,1.27,3.17,3.17,0,0,1-3.34-3.17c0-2.69,2.41-4,6.07-4V23.17c0-.55-0.3-1.33-1.88-1.33a5.81,5.81,0,0,0-2.86.78l-0.59-2.07a8.54,8.54,0,0,1,4-.91c3.45,0,4.55,2,4.55,4.47v3.6a16,16,0,0,0,.15,2.52h-2.9Zm-0.38-4.89c-1.69,0-3,.38-3,1.63a1.16,1.16,0,0,0,1.27,1.23A1.76,1.76,0,0,0,149.19,27a2.28,2.28,0,0,0,.06-0.55V25.33Z"/><path class="cls-1" d="M154.93,23.17c0-1.29,0-2.39-.08-3.3h2.71l0.15,1.4h0.06a3.59,3.59,0,0,1,3.13-1.63,2.93,2.93,0,0,1,2.84,1.76h0a4.63,4.63,0,0,1,1.33-1.25,3.73,3.73,0,0,1,2-.51c2,0,3.49,1.4,3.49,4.49v6.1h-3.13V24.59c0-1.5-.49-2.37-1.52-2.37a1.57,1.57,0,0,0-1.48,1.12,2.71,2.71,0,0,0-.13.83v6.05h-3.13v-5.8c0-1.31-.47-2.2-1.48-2.2a1.64,1.64,0,0,0-1.5,1.16,2.14,2.14,0,0,0-.13.8v6h-3.13v-7Z"/><path class="cls-1" d="M173,30.22c0-.68.08-1.93,0.08-3.09V15.19h3.22v5.9h0a3.65,3.65,0,0,1,3.13-1.46c2.48,0,4.3,2.05,4.27,5.23,0,3.72-2.37,5.59-4.74,5.59a3.44,3.44,0,0,1-3.11-1.67h0l-0.13,1.44H173Zm3.3-4.4a2.37,2.37,0,0,0,.06.57,2,2,0,0,0,1.88,1.52c1.38,0,2.22-1.06,2.22-2.92,0-1.61-.72-2.88-2.22-2.88a2,2,0,0,0-1.88,1.59,2.7,2.7,0,0,0-.06.59v1.52Z"/><path class="cls-1" d="M188.32,26.07c0.11,1.33,1.42,2,2.92,2a9.1,9.1,0,0,0,2.86-.42l0.42,2.18a10.23,10.23,0,0,1-3.75.63c-3.51,0-5.52-2-5.52-5.27,0-2.62,1.63-5.52,5.23-5.52,3.34,0,4.61,2.6,4.61,5.16a7.55,7.55,0,0,1-.11,1.27h-6.67Zm3.79-2.2a1.87,1.87,0,0,0-1.82-2.09,2.11,2.11,0,0,0-2,2.09h3.81Z"/><path class="cls-1" d="M197,23.28c0-1.52,0-2.52-.08-3.41h2.77l0.11,1.91h0.08a3,3,0,0,1,2.79-2.14,3.35,3.35,0,0,1,.68,0v3a4.65,4.65,0,0,0-.87-0.08,2.07,2.07,0,0,0-2.2,1.63,3.81,3.81,0,0,0-.06.72v5.25H197V23.28Z"/><path class="cls-1" d="M219.56,24.93a5.19,5.19,0,0,1-5.46,5.52,5.07,5.07,0,0,1-5.35-5.33,5.17,5.17,0,0,1,5.52-5.48A5,5,0,0,1,219.56,24.93Zm-7.49.11c0,1.78.74,3.11,2.12,3.11s2.05-1.25,2.05-3.11c0-1.54-.59-3.11-2.05-3.11S212.07,23.51,212.07,25Z"/><path class="cls-1" d="M221.91,30.22v-8h-1.35V19.87h1.35v-0.4A4.72,4.72,0,0,1,223.22,16a4.19,4.19,0,0,1,2.86-1,6.18,6.18,0,0,1,1.71.21l-0.13,2.48a3.47,3.47,0,0,0-1-.15c-1.06,0-1.5.83-1.5,1.84v0.53h2.07v2.37h-2.05v8h-3.24Z"/><path class="cls-1" d="M243.63,29.81a9.18,9.18,0,0,1-3.66.61c-4.93,0-7.47-3.07-7.47-7.13,0-4.87,3.47-7.58,7.79-7.58a8.41,8.41,0,0,1,3.51.63l-0.66,2.56a7,7,0,0,0-2.71-.53c-2.56,0-4.55,1.54-4.55,4.72,0,2.86,1.69,4.66,4.57,4.66a8.06,8.06,0,0,0,2.69-.47Z"/><path class="cls-1" d="M255.46,24.93A5.19,5.19,0,0,1,250,30.45a5.07,5.07,0,0,1-5.35-5.33,5.17,5.17,0,0,1,5.52-5.48A5,5,0,0,1,255.46,24.93ZM248,25c0,1.78.74,3.11,2.12,3.11s2.05-1.25,2.05-3.11c0-1.54-.59-3.11-2.05-3.11S248,23.51,248,25Z"/><path class="cls-1" d="M257.44,23.17c0-1.29,0-2.39-.08-3.3h2.71l0.15,1.4h0.06a3.59,3.59,0,0,1,3.13-1.63,2.93,2.93,0,0,1,2.84,1.76h0a4.64,4.64,0,0,1,1.33-1.25,3.74,3.74,0,0,1,2-.51c2,0,3.49,1.4,3.49,4.49v6.1H270V24.59c0-1.5-.49-2.37-1.52-2.37a1.57,1.57,0,0,0-1.48,1.12,2.68,2.68,0,0,0-.13.83v6.05h-3.13v-5.8c0-1.31-.46-2.2-1.48-2.2a1.64,1.64,0,0,0-1.5,1.16,2.12,2.12,0,0,0-.13.8v6h-3.13v-7Z"/><path class="cls-1" d="M275.65,23.17c0-1.29,0-2.39-.08-3.3h2.71l0.15,1.4h0.06a3.59,3.59,0,0,1,3.13-1.63,2.93,2.93,0,0,1,2.84,1.76h0a4.64,4.64,0,0,1,1.33-1.25,3.74,3.74,0,0,1,2-.51c2,0,3.49,1.4,3.49,4.49v6.1h-3.13V24.59c0-1.5-.49-2.37-1.52-2.37a1.57,1.57,0,0,0-1.48,1.12,2.68,2.68,0,0,0-.13.83v6.05h-3.13v-5.8c0-1.31-.46-2.2-1.48-2.2a1.64,1.64,0,0,0-1.5,1.16,2.12,2.12,0,0,0-.13.8v6h-3.13v-7Z"/><path class="cls-1" d="M296.32,26.07c0.11,1.33,1.42,2,2.92,2a9.11,9.11,0,0,0,2.86-.42l0.42,2.18a10.22,10.22,0,0,1-3.75.63c-3.51,0-5.52-2-5.52-5.27,0-2.62,1.63-5.52,5.23-5.52,3.34,0,4.61,2.6,4.61,5.16a7.55,7.55,0,0,1-.11,1.27h-6.67Zm3.79-2.2a1.87,1.87,0,0,0-1.82-2.09,2.11,2.11,0,0,0-2,2.09h3.81Z"/><path class="cls-1" d="M305,23.28c0-1.52,0-2.52-.08-3.41h2.77l0.11,1.91h0.08a3,3,0,0,1,2.79-2.14,3.35,3.35,0,0,1,.68,0v3a4.66,4.66,0,0,0-.87-0.08,2.07,2.07,0,0,0-2.2,1.63,3.81,3.81,0,0,0-.06.72v5.25H305V23.28Z"/><path class="cls-1" d="M320.66,30a7.85,7.85,0,0,1-2.88.47c-3.34,0-5.48-2-5.48-5.29,0-3,2.07-5.5,5.93-5.5a7.46,7.46,0,0,1,2.46.4l-0.51,2.39a4.39,4.39,0,0,0-1.8-.32A2.68,2.68,0,0,0,315.6,25a2.69,2.69,0,0,0,2.84,2.9,5,5,0,0,0,1.84-.32Z"/><path class="cls-1" d="M324.68,26.07c0.11,1.33,1.42,2,2.92,2a9.11,9.11,0,0,0,2.86-.42l0.42,2.18a10.22,10.22,0,0,1-3.75.63c-3.51,0-5.52-2-5.52-5.27,0-2.62,1.63-5.52,5.23-5.52,3.34,0,4.61,2.6,4.61,5.16a7.55,7.55,0,0,1-.11,1.27h-6.67Zm3.79-2.2a1.87,1.87,0,0,0-1.82-2.09,2.11,2.11,0,0,0-2,2.09h3.81Z"/></svg>